<svg viewBox="0 0 20 19" xmlns="http://www.w3.org/2000/svg"><g fill="#132122" stroke-linecap="round" stroke-linejoin="round" transform="translate(.5 .5)"><path d="m18.5 6.6h-18c-.27614237 0-.5.22385763-.5.5s.22385763.5.5.5h18c.2761424 0 .5-.22385763.5-.5s-.2238576-.5-.5-.5z"/><path d="m3.5 1.8h12c1.9329966 0 3.5 1.56700338 3.5 3.5v9.6c0 1.9329966-1.5670034 3.5-3.5 3.5h-12c-1.93299662 0-3.5-1.5670034-3.5-3.5v-9.6c0-1.93299662 1.56700338-3.5 3.5-3.5zm0 1c-1.38071187 0-2.5 1.11928813-2.5 2.5v9.6c0 1.3807119 1.11928813 2.5 2.5 2.5h12c1.3807119 0 2.5-1.1192881 2.5-2.5v-9.6c0-1.38071187-1.1192881-2.5-2.5-2.5z"/><path d="m4.2.5v3.6c0 .27614237.22385763.5.5.5s.5-.22385763.5-.5v-3.6c0-.27614237-.22385763-.5-.5-.5s-.5.22385763-.5.5z"/><path d="m13.8.5v3.6c0 .27614237.2238576.5.5.5s.5-.22385763.5-.5v-3.6c0-.27614237-.2238576-.5-.5-.5s-.5.22385763-.5.5z"/></g></svg>