<svg enable-background="new 0 0 60 60" viewBox="0 0 60 60" xmlns="http://www.w3.org/2000/svg"><path d="m10 25.465h13c.553 0 1-.448 1-1s-.447-1-1-1h-13c-.553 0-1 .448-1 1s.447 1 1 1z"/><path d="m36 29.465h-26c-.553 0-1 .448-1 1s.447 1 1 1h26c.553 0 1-.448 1-1s-.447-1-1-1z"/><path d="m36 35.465h-26c-.553 0-1 .448-1 1s.447 1 1 1h26c.553 0 1-.448 1-1s-.447-1-1-1z"/><path d="m54.072 2.535-34.142-.07c-3.27 0-5.93 2.66-5.93 5.93v5.124l-8.07.017c-3.27 0-5.93 2.66-5.93 5.93v21.141c0 3.27 2.66 5.929 5.93 5.929h6.07v10c0 .413.254.784.64.933.117.045.239.067.36.067.276 0 .547-.115.74-.327l9.704-10.675 16.626-.068c3.27 0 5.93-2.66 5.93-5.929v-.113l5.26 5.786c.193.212.464.327.74.327.121 0 .243-.022.36-.067.386-.149.64-.52.64-.933v-10h1.07c3.27 0 5.93-2.66 5.93-5.929v-21.143c0-3.269-2.659-5.929-5.928-5.93zm-10.072 38.001c0 2.167-1.763 3.929-3.934 3.929l-17.07.07c-.28.001-.548.12-.736.327l-8.26 9.087v-8.414c0-.552-.447-1-1-1h-7.07c-2.167 0-3.93-1.763-3.93-3.929v-21.141c0-2.167 1.763-3.93 3.932-3.93l9.068-.019h.002l25.068-.052c2.167 0 3.93 1.763 3.93 3.93v18.441zm14-10.93c0 2.167-1.763 3.929-3.93 3.929h-2.07c-.553 0-1 .448-1 1v8.414l-5-5.5v-18.054c0-3.27-2.66-5.93-5.932-5.93l-24.068.049v-5.12c0-2.167 1.763-3.93 3.928-3.93l34.141.07h.002c2.167 0 3.93 1.763 3.93 3.93v21.142z"/></svg>