<svg viewBox="0 0 12 16" fill="none" xmlns="http://www.w3.org/2000/svg">
<path d="M7.68595 6.13967L6 7.82562L4.31405 6.13967C4.12782 5.95344 3.82589 5.95344 3.63967 6.13967C3.45344 6.32589 3.45344 6.62782 3.63967 6.81405L5.32562 8.5L3.63967 10.186C3.45344 10.3722 3.45344 10.6741 3.63967 10.8603C3.82589 11.0466 4.12782 11.0466 4.31405 10.8603L6 9.17438L7.68595 10.8603C7.87218 11.0466 8.17411 11.0466 8.36033 10.8603C8.54656 10.6741 8.54656 10.3722 8.36033 10.186L6.67438 8.5L8.36033 6.81405C8.54656 6.62782 8.54656 6.32589 8.36033 6.13967C8.17411 5.95344 7.87218 5.95344 7.68595 6.13967Z" fill="#DF6857"/>
<path fill-rule="evenodd" clip-rule="evenodd" d="M0 16V3.5L3.5 0H12V16H0ZM1.91421 3L3 1.91421V3H1.91421ZM1 15V4H3.5C3.77614 4 4 3.77614 4 3.5V1H11V15H1Z" fill="#DF6857"/>
</svg>
