<svg viewBox="0 0 19 18" xmlns="http://www.w3.org/2000/svg"><path d="m6 .6h7c.1932997 0 .3545749.1371128.3918734.31938605l.0081266.08061395-.001 2.599 4.601.001c.2209139 0 .4.1790861.4.4v2c0 .2209139-.1790861.4-.4.4l-1.601-.001.001 8.6598235c0 1.2317456-.8855709 2.2527885-2.0229918 2.3357369l-.1497355.0054396h-9.45454543c-1.20847618 0-2.17272727-1.0558768-2.17272727-2.3411765l-.001-8.6598235-1.599.001c-.2209139 0-.4-.1790861-.4-.4v-2c0-.2209139.1790861-.4.4-.4l4.599-.001.001-2.599c0-.19329966.1371128-.35457492.31938605-.39187342l.08061395-.00812658h7zm9.599 5.799h-12.2l.001 8.6598235c0 .8083432.55195281 1.4602936 1.24185508 1.5341966l.13087219.0069799h9.45454543c.7496243 0 1.3727273-.6823119 1.3727273-1.5411765zm-6.099 2.201c.2209139 0 .4.1790861.4.4v5c0 .2209139-.1790861.4-.4.4s-.4-.1790861-.4-.4v-5c0-.2209139.1790861-.4.4-.4zm-3 0c.2209139 0 .4.1790861.4.4v5c0 .2209139-.1790861.4-.4.4s-.4-.1790861-.4-.4v-5c0-.2209139.1790861-.4.4-.4zm6 0c.2209139 0 .4.1790861.4.4v5c0 .2209139-.1790861.4-.4.4s-.4-.1790861-.4-.4v-5c0-.2209139.1790861-.4.4-.4zm5.1-4.2h-16.2v1.2h16.2zm-5-3h-6.2l-.001 2.199h6.2z"/></svg>