<svg viewBox="0 0 24 19" xmlns="http://www.w3.org/2000/svg"><path d="m55 285.965257c.5522847 0 1 .447715 1 1v6.692308c0 1.816381-1.4217166 3.307692-3.2 3.307692h-17.6c-1.7782834 0-3.2-1.491311-3.2-3.307692v-6.692308c0-.552285.4477153-1 1-1s1 .447715 1 1v6.692308c0 .732625.5482305 1.307692 1.2 1.307692h17.6c.6517695 0 1.2-.575067 1.2-1.307692v-6.692308c0-.552285.4477153-1 1-1zm-2.2-7.965257c1.7615071 0 3.2 1.401129 3.2 3.142857v2.142857c0 .373208-.2078234.715361-.5390102.887406l-11 5.714285c-.2889927.150127-.6329869.150127-.9219796 0l-11-5.714285c-.3311868-.172045-.5390102-.514198-.5390102-.887406v-2.142857c0-1.741728 1.4384929-3.142857 3.2-3.142857zm0 2h-17.6c-.6685458 0-1.2.51765-1.2 1.142857v1.535457l10 5.194805 10-5.194805v-1.535457c0-.625207-.5314542-1.142857-1.2-1.142857z" fill="#691c35" fill-rule="evenodd" transform="translate(-32 -278)"/></svg>