<svg viewBox="0 0 22 14" fill="none" xmlns="http://www.w3.org/2000/svg">
<path d="M21.8845 6.61185C21.7078 6.34165 17.4811 0 11 0C4.51894 0 0.292188 6.34165 0.1155 6.61185C-0.0385 6.84705 -0.0385 7.1533 0.1155 7.3885C0.292188 7.65835 4.51894 14 11 14C17.4811 14 21.7078 7.65835 21.8845 7.38815C22.0385 7.1533 22.0385 6.84705 21.8845 6.61185ZM11 11.9C8.34625 11.9 6.1875 9.702 6.1875 7C6.1875 4.298 8.34625 2.1 11 2.1C13.6537 2.1 15.8125 4.298 15.8125 7C15.8125 9.702 13.6537 11.9 11 11.9Z" fill="black"/>
<path d="M11 4.8999C9.86253 4.8999 8.9375 5.84175 8.9375 6.9999C8.9375 8.15805 9.86253 9.0999 11 9.0999C12.1375 9.0999 13.0625 8.15805 13.0625 6.9999C13.0625 5.84175 12.1375 4.8999 11 4.8999Z" fill="black"/>
</svg>
