<svg viewBox="0 0 24 19" fill="none" xmlns="http://www.w3.org/2000/svg">
<path fill-rule="evenodd" clip-rule="evenodd" d="M15 2V1C15 0.447754 15.4477 0 16 0H19C19.5523 0 20 0.447754 20 1V2H24V3H20V4C20 4.55225 19.5523 5 19 5H16C15.4477 5 15 4.55225 15 4V3H0V2H15ZM16 1H19V4H16V1Z" fill="#2D6CCA"/>
<path fill-rule="evenodd" clip-rule="evenodd" d="M15 16V15C15 14.4478 15.4477 14 16 14H19C19.5523 14 20 14.4478 20 15V16H24V17H20V18C20 18.5522 19.5523 19 19 19H16C15.4477 19 15 18.5522 15 18V17H0V16H15ZM16 15H19V18H16V15Z" fill="#2D6CCA"/>
<path fill-rule="evenodd" clip-rule="evenodd" d="M4 8V9H0V10H4V11C4 11.5522 4.44772 12 5 12H8C8.55228 12 9 11.5522 9 11V10H24V9H9V8C9 7.44775 8.55228 7 8 7H5C4.44772 7 4 7.44775 4 8ZM8 8H5V11H8V8Z" fill="#2D6CCA"/>
</svg>
