<svg viewBox="0 0 87 70" xmlns="http://www.w3.org/2000/svg"><path d="m3.35062188.2979536 14.76136222 14.5554219v-7.89731247h1.979899l-.0005717 11.07224597c.9161905-1.1436688 2.3266326-1.8763682 3.9086886-1.8763682h58c2.7614237 0 5 2.2322775 5 4.9859314v43.8761964c0 2.6811893-2.1223067 4.868082-4.7831104 4.9813249l-.2731563.0046065c-.5522848 0-1-.4464555-1-.9971863s.4477152-.9971863 1-.9971863h.0562667c1.6568542 0 3-1.3393665 3-2.9915588v-35.8987061h-64v35.8987061c0 1.6521923 1.3431458 2.9915588 3 2.9915588h52.6349919c.5522847 0 1 .4464555 1 .9971863s-.4477153.9971863-1 .9971863h-52.6349919c-2.7614237 0-5-2.2322775-5-4.9859314v-43.8761964c0-1.0817616.3454748-2.0830603.9324046-2.9001691l-11.15423001.0002348v-1.9743281h7.91959591l-13.81256914-13.71123415c-.36762724.35322443-.67135514.84200119-.83149033 1.3616766l-.05316414.19612225h-2.00054689c.01915708-.49740313.10896665-.92536337.26942871-1.28388073l.09710482-.21440087c.24552315-.52771659.64447934-1.23170082 1.63401336-1.77873405.24592202-.13730204.44348394-.23342336.59268573-.28836395l.37028657-.12942738c.24563805-.08102797.38710269-.11741392.38710269-.11741392zm75.64937812 60.7273699c.5522847 0 1 .4464555 1 .9971863 0 .5507307-.4477153.9971862-1 .9971862h-19c-.5522847 0-1-.4464555-1-.9971862 0-.5507308.4477153-.9971863 1-.9971863zm-25-26.9240296c.5522847 0 1 .4464555 1 .9971863v26.9240296c0 .5507307-.4477153.9971862-1 .9971862h-27c-.5522847 0-1-.4464555-1-.9971862v-26.9240296c0-.5507308.4477153-.9971863 1-.9971863zm-1 1.9943725h-25v24.9296571h25zm26 19.9437257c.5522847 0 1 .4464555 1 .9971862 0 .5507308-.4477153.9971863-1 .9971863h-19c-.5522847 0-1-.4464555-1-.9971863 0-.5507307.4477153-.9971862 1-.9971862zm0-4.9859314c.5522847 0 1 .4464555 1 .9971862 0 .5507308-.4477153.9971863-1 .9971863h-19c-.5522847 0-1-.4464555-1-.9971863 0-.5507307.4477153-.9971862 1-.9971862zm-62.7541302-.1969604v1.9943726h-3v-1.9943726zm-5 0v1.9943726h-2.99999996v-1.9943726zm-7.5291687-.2864852c.39716774.1878017.83221424.2864852 1.2832989.2864852h1.24586984v1.9943726h-1.24586984c-.74905652 0-1.47661885-.1650363-2.14021275-.4788181zm-1.71670076-3.3353187.00043723.6820361c.01036048.612591.20513162 1.1933714.55436967 1.6819741l-1.62864299 1.1575619c-.58223672-.8145802-.90820266-1.7865653-.92558415-2.821895l-.00057976-.6980253zm76.99999966-13.1334025c.5522847 0 1 .4464555 1 .9971863v10.9690491c0 .5507307-.4477153.9971862-1 .9971862h-19c-.5522847 0-1-.4464555-1-.9971862v-10.9690491c0-.5507308.4477153-.9971863 1-.9971863zm-77 7.1511107v3.9887451h-2v-3.9887451zm76-5.1567382h-17v8.9746766h17zm-76 .1708068v2.9915588h-2v-2.9915588zm0-4.9859314v2.9915588h-2v-2.9915588zm0-4.9859314v2.9915588h-2v-2.9915588zm80-8.148297h-58c-1.6568542 0-3 1.3393665-3 2.9915588v5.9831177h64v-5.9831177c0-1.6521923-1.3431458-2.9915588-3-2.9915588zm-41.5 1.9943725c1.3807119 0 2.5 1.1161388 2.5 2.4929657 0 1.376827-1.1192881 2.4929657-2.5 2.4929657s-2.5-1.1161387-2.5-2.4929657c0-1.3768269 1.1192881-2.4929657 2.5-2.4929657zm-7 0c1.3807119 0 2.5 1.1161388 2.5 2.4929657 0 1.376827-1.1192881 2.4929657-2.5 2.4929657s-2.5-1.1161387-2.5-2.4929657c0-1.3768269 1.1192881-2.4929657 2.5-2.4929657zm-7 0c1.3807119 0 2.5 1.1161388 2.5 2.4929657 0 1.376827-1.1192881 2.4929657-2.5 2.4929657s-2.5-1.1161387-2.5-2.4929657c0-1.3768269 1.1192881-2.4929657 2.5-2.4929657zm-24.5 1.167993v2.9915589h-2v-2.9915589zm38.5.6269423c-.3865993 0-.7.3125189-.7.6980304 0 .3855116.3134007.6980304.7.6980304s.7-.3125188.7-.6980304c0-.3855115-.3134007-.6980304-.7-.6980304zm-14 0c-.3865993 0-.7.3125189-.7.6980304 0 .3855116.3134007.6980304.7.6980304s.7-.3125188.7-.6980304c0-.3855115-.3134007-.6980304-.7-.6980304zm7 0c-.3865993 0-.7.3125189-.7.6980304 0 .3855116.3134007.6980304.7.6980304s.7-.3125188.7-.6980304c0-.3855115-.3134007-.6980304-.7-.6980304zm-31.5-5.6128737v2.9915589h-2v-2.9915589zm0-4.9859314v2.9915589h-2v-2.9915589zm66-.490356v2.9915588h-2v-2.9915588zm-66-4.49557537v2.99155884h-2v-2.99155884zm66-.49035606v2.99155885h-2v-2.99155885zm-2.5785294-5.23765062c1.130896.62518083 1.9819053 1.66749389 2.3609293 2.90454772l-1.9127166.58274873c-.2269565-.74073785-.7387334-1.36756029-1.4179254-1.74303057zm-27.4214706-.62287805v1.99437256h-3v-1.99437256zm5 0v1.99437256h-3v-1.99437256zm5 0v1.99437256h-3v-1.99437256zm5 0v1.99437256h-3v-1.99437256zm5 0v1.99437256h-3v-1.99437256zm5 0v1.99437256h-3v-1.99437256zm-35 0v1.99437256h-3v-1.99437256zm-5 0v1.99437256h-3v-1.99437256zm-5 0v1.99437256h-4v-1.99437256zm-6 0v1.99437256h-3l-2-1.99437256zm21 0v1.99437256h-3v-1.99437256z" fill="#132122"/></svg>
