<svg viewBox="0 0 22 14" xmlns="http://www.w3.org/2000/svg"><path d="m119 282.999v2l-3 .001c-.552285 0-1 .447715-1 1v5c0 .552285.447715 1 1 1h8c.552285 0 1-.447715 1-1v-5c0-.552285-.447715-1-1-1v-2c1.656854 0 3 1.343146 3 3v5c0 1.656854-1.343146 3-3 3h-8c-1.656854 0-3-1.343146-3-3v-5c0-1.656854 1.343146-3 3-3zm13-2.999c1.656854 0 3 1.343146 3 3v5c0 1.656854-1.343146 3-3 3h-3v-2h3c.552285 0 1-.447715 1-1v-5c0-.552285-.447715-1-1-1h-8c-.552285 0-1 .447715-1 1v5c0 .512836.38604.935507.883379.993272l.116621.006728v2c-1.656854 0-3-1.343146-3-3v-5c0-1.656854 1.343146-3 3-3z" fill="#691c35" fill-rule="evenodd" transform="translate(-113 -280)"/></svg>