<svg xmlns="http://www.w3.org/2000/svg" viewBox="0 0 14 19">
    <path d="M14 7.102c0 2.879-2.217 6.767-6.626 11.73-.199.223-.547.224-.746.002C2.218 13.91 0 10.02 0 7.102 0 2.95 3.233 0 7 0c3.743 0 7 2.99 7 7.102zm-1 0C13 3.563 10.21 1 7 1 3.766 1 1 3.524 1 7.102c0 2.524 1.991 6.091 5.999 10.643C11.007 13.156 13 9.588 13 7.102zm-6 2.4c-1.38 0-2.5-1.12-2.5-2.5C4.5 5.62 5.62 4.5 7 4.5s2.5 1.12 2.5 2.5c0 1.382-1.12 2.501-2.5 2.501zm0-1c.828 0 1.5-.672 1.5-1.5 0-.829-.672-1.5-1.5-1.5s-1.5.671-1.5 1.5c0 .828.672 1.5 1.5 1.5z"/>
</svg>
