<svg viewBox="0 0 50 38" xmlns="http://www.w3.org/2000/svg"><path d="m3.333 0a3.351 3.351 0 0 0 -3.333 3.333v31.111a3.351 3.351 0 0 0 3.333 3.334h43.334a3.351 3.351 0 0 0 3.333-3.334v-31.11a3.351 3.351 0 0 0 -3.333-3.334zm0 2.222h43.334c.633 0 1.11.478 1.11 1.111v26.563l-9.739-10.66a1.128 1.128 0 0 0 -1.632 0l-7.95 8.437-11.512-12.863a1.128 1.128 0 0 0 -1.007-.365 1.12 1.12 0 0 0 -.643.348l-13.071 14.044v-25.504c0-.633.477-1.11 1.11-1.11zm25.557 5.556c-2.441 0-4.445 2.003-4.445 4.444 0 2.442 2.004 4.445 4.445 4.445s4.444-2.003 4.444-4.445c0-2.441-2.003-4.444-4.444-4.444zm0 2.222c1.241 0 2.222.98 2.222 2.222s-.98 2.222-2.222 2.222a2.204 2.204 0 0 1 -2.222-2.222c0-1.241.98-2.222 2.222-2.222zm-12.795 7.205 16.423 18.35h-29.185a1.086 1.086 0 0 1 -1.11-1.11v-2.345l13.87-14.896zm21.111 4.427 10.573 11.562v1.25c0 .634-.478 1.111-1.111 1.111h-11.165l-5.555-6.215 7.257-7.708z" fill="#9b9b9b"/></svg>