<svg width="16" height="16" viewBox="0 0 16 16" fill="none" xmlns="http://www.w3.org/2000/svg">
<path d="M7.66146 9.65749C8.06594 10.0817 8.55397 10.3436 9.01473 10.3962C9.48665 10.4413 9.98509 10.2854 10.5361 9.6698C10.7069 9.47905 10.894 9.2582 11.2087 9.15269C11.5234 9.04719 11.9015 9.11267 12.3036 9.32917C13.0707 9.91215 13.8618 10.5026 14.6165 11.1021C14.9762 11.4621 15.0688 11.9363 14.9528 12.3087C14.8367 12.6811 14.588 12.9631 14.3581 13.1993C13.0766 14.5357 11.5586 15.1815 10.0687 14.9557C8.62949 14.7064 7.23678 13.6976 5.69308 12.1527C5.02953 11.4886 4.51258 10.9713 3.85589 10.3141C2.31217 8.76919 1.30416 7.37542 1.05499 5.93512C0.758766 4.15384 1.70433 2.70392 2.81013 1.64236C3.04608 1.41231 3.32794 1.16343 3.70003 1.04727C4.07213 0.931109 4.54593 1.02378 4.90567 1.3838C5.50475 2.13902 6.0947 2.93076 6.67725 3.69846C6.89356 4.10087 6.95899 4.4793 6.85357 4.79423C6.74815 5.10917 6.52746 5.2964 6.33687 5.4673C5.72177 6.01877 5.56597 6.51758 5.61103 6.98988C5.66357 7.45099 5.9252 7.93948 6.34917 8.3442L7.66146 9.65749ZM5.82427 8.86952C5.3278 8.38685 4.93631 7.76776 4.86876 7.05965C4.80104 6.34957 5.09634 5.58058 5.84067 4.91325C6.02197 4.75069 6.1207 4.63841 6.14823 4.55621C6.17527 4.47547 6.18275 4.35804 6.02929 4.06782L4.38077 1.90911C4.16824 1.69643 4.08297 1.70274 3.92148 1.75315C3.75994 1.80358 3.5378 1.97013 3.33095 2.17177C2.0023 3.50144 1.58485 4.62765 1.78901 5.80793C1.99319 6.98819 2.88233 8.28923 4.38077 9.78881C4.99581 10.4043 5.67204 11.0811 6.21796 11.6274C7.71637 13.127 9.01642 14.0168 10.1958 14.2212C11.3751 14.4255 12.5005 14.0077 13.8291 12.678C14.0306 12.471 14.197 12.2487 14.2474 12.0871C14.2978 11.9254 14.3041 11.8401 14.0916 11.6274L11.9345 9.9776C11.6445 9.82403 11.5272 9.83154 11.4465 9.85858C11.3644 9.88611 11.2522 9.98492 11.0897 10.1664C10.4229 10.9113 9.65455 11.2068 8.94502 11.139C8.23745 11.0714 7.61883 10.6796 7.13652 10.1828" fill="black"/>
<path d="M7.66146 9.65749C8.06594 10.0817 8.55397 10.3436 9.01473 10.3962C9.48665 10.4413 9.98509 10.2854 10.5361 9.6698C10.7069 9.47905 10.894 9.2582 11.2087 9.15269C11.5234 9.04719 11.9015 9.11267 12.3036 9.32917C13.0707 9.91215 13.8618 10.5026 14.6165 11.1021C14.9762 11.4621 15.0688 11.9363 14.9528 12.3087C14.8367 12.6811 14.588 12.9631 14.3581 13.1993C13.0766 14.5357 11.5586 15.1815 10.0687 14.9557C8.62949 14.7064 7.23678 13.6976 5.69308 12.1527C5.02953 11.4886 4.51258 10.9713 3.85589 10.3141C2.31217 8.76919 1.30416 7.37542 1.05499 5.93512C0.758766 4.15384 1.70433 2.70392 2.81013 1.64236C3.04608 1.41231 3.32794 1.16343 3.70003 1.04727C4.07213 0.931109 4.54593 1.02378 4.90567 1.3838C5.50475 2.13902 6.0947 2.93076 6.67725 3.69846C6.89356 4.10087 6.959 4.4793 6.85357 4.79423C6.74815 5.10917 6.52746 5.2964 6.33687 5.4673C5.72177 6.01877 5.56597 6.51758 5.61103 6.98988C5.66357 7.45099 5.9252 7.93948 6.34917 8.3442L7.66146 9.65749ZM5.82427 8.86952C5.3278 8.38685 4.93631 7.76776 4.86876 7.05965C4.80104 6.34957 5.09634 5.58058 5.84067 4.91325C6.02197 4.75069 6.1207 4.63841 6.14823 4.55621C6.17527 4.47547 6.18275 4.35804 6.02929 4.06782L4.38077 1.90911C4.16824 1.69643 4.08297 1.70274 3.92148 1.75315C3.75994 1.80358 3.5378 1.97013 3.33095 2.17177C2.0023 3.50144 1.58485 4.62765 1.78901 5.80793C1.99319 6.9882 2.88233 8.28923 4.38077 9.78881C4.99581 10.4043 5.67204 11.0811 6.21796 11.6274C7.71637 13.127 9.01642 14.0168 10.1958 14.2212C11.3751 14.4255 12.5005 14.0077 13.8291 12.678C14.0306 12.471 14.197 12.2487 14.2474 12.0871C14.2978 11.9254 14.3041 11.8401 14.0916 11.6274L11.9345 9.9776C11.6445 9.82403 11.5272 9.83154 11.4465 9.85858C11.3644 9.88611 11.2522 9.98492 11.0897 10.1664C10.4229 10.9113 9.65455 11.2068 8.94502 11.139C8.23745 11.0714 7.61883 10.6796 7.13652 10.1828L5.82427 8.86952Z" stroke="black" stroke-width="0.2"/>
</svg>
