<svg viewBox="0 0 15 15" xmlns="http://www.w3.org/2000/svg"><g fill="#132122" fill-rule="nonzero"><path d="m14.4709544 7c.2921838 0 .5290456.2238576.5290456.5 0 .2454599-.1871501.4496084-.433949.4919443l-.0950966.0080557h-13.94190876c-.29218383 0-.52904564-.2238576-.52904564-.5 0-.2454599.18715007-.4496084.43394903-.4919443l.09509661-.0080557z"/><path d="m14.4709544 7c.2921838 0 .5290456.2238576.5290456.5 0 .2454599-.1871501.4496084-.433949.4919443l-.0950966.0080557h-13.94190876c-.29218383 0-.52904564-.2238576-.52904564-.5 0-.2454599.18715007-.4496084.43394903-.4919443l.09509661-.0080557z" transform="matrix(0 1 -1 0 15 0)"/></g></svg>
