<svg viewBox="0 0 26 67" xmlns="http://www.w3.org/2000/svg"><path d="m13.063 23.844c.547 0 .994.445.994.997v5.97a.996.996 0 0 1 -1.992 0v-5.97c0-.552.448-.997.998-.997zm.994 39.403 3.282-3.284c.2-.197.398-.296.698-.296s.497.099.695.296a.961.961 0 0 1 0 1.394l-4.974 4.976a.983.983 0 0 1 -.695.297c-.25 0-.5-.099-.698-.297l-4.975-4.976a.961.961 0 0 1 0-1.394c.198-.197.396-.296.695-.296.3 0 .498.099.698.296l3.281 3.284v-13.531c0-.596.399-.995.998-.995.596 0 .995.399.995.995zm-4.635-9.174c.508.19.774.755.599 1.26a1.002 1.002 0 0 1 -1.266.617c-1.127-.398-3.768-1.502-5.893-4.221-2.586-3.307-2.734-6.854-2.737-7.985v-18.903c.003-.984.12-5.219 3.435-8.797 3.737-4.036 8.67-4.135 9.5-4.14.826 0 5.787.086 9.529 4.14 3.307 3.581 3.409 7.818 3.409 8.797v18.903c.002 1.115-.128 4.446-2.485 7.664-2.203 3.005-5.07 4.164-6.146 4.542a1.001 1.001 0 0 1 -1.265-.615 1.004 1.004 0 0 1 .612-1.268 11.075 11.075 0 0 0 5.018-3.654c2.125-2.765 2.268-5.7 2.273-6.669v-18.903c0-.797-.083-4.48-2.994-7.547-3.162-3.33-7.248-3.398-7.951-3.398-.68 0-5.042.09-8.23 3.705-2.872 3.256-2.755 7.07-2.716 7.847v18.297c.01.974.165 3.817 2.206 6.547a11.161 11.161 0 0 0 5.102 3.78zm1.649-52.084a1.991 1.991 0 0 1 3.981 0 1.99 1.99 0 0 1 -3.981 0zm0 5.972a1.99 1.99 0 1 1 1.99 1.99c-1.097 0-1.99-.891-1.99-1.99z" opacity=".342"/></svg>