<svg viewBox="0 0 24 14" xmlns="http://www.w3.org/2000/svg"><path d="m20 .5c.2454599 0 .4496084.17687516.4919443.41012437l.0080557.08987563v10.793l2.1464466-2.14655339c.1735664-.17356635.4429908-.1928515.6378589-.05785545l.0692479.05785545c.1735663.17356635.1928515.44299079.0578554.63785889l-.0578554.0692479-3 3-.0418912.0374856-.0618971.0422136-.05917.0291368-.062456.0209998-.0560599.0114538-.0720792.005157-.0534276-.002821-.0747182-.0137873-.0628908-.0211839-.0932689-.050799-.0569809-.0459975-3.012267-3.0118579c-.1952621-.1952622-.1952621-.51184464 0-.70710679.1735664-.17356635.4429908-.1928515.6378589-.05785545l.0692479.05785545 2.1464466 2.14655339v-10.793c0-.27614237.2238576-.5.5-.5zm-9 10c.2761424 0 .5.2238576.5.5 0 .2454599-.1768752.4496084-.4101244.4919443l-.0898756.0080557h-6c-.27614237 0-.5-.2238576-.5-.5 0-.2454599.17687516-.4496084.41012437-.4919443l.08987563-.0080557zm2-4c.2761424 0 .5.22385763.5.5 0 .24545989-.1768752.44960837-.4101244.49194433l-.0898756.00805567h-10c-.27614237 0-.5-.22385763-.5-.5 0-.24545989.17687516-.44960837.41012437-.49194433l.08987563-.00805567zm2-4c.2761424 0 .5.22385763.5.5 0 .24545989-.1768752.44960837-.4101244.49194433l-.0898756.00805567h-14c-.27614237 0-.5-.22385763-.5-.5 0-.24545989.17687516-.44960837.41012437-.49194433l.08987563-.00805567z" fill="#132122"/></svg>