<svg xmlns="http://www.w3.org/2000/svg" viewBox="0 0 15 19">
    <path fill="#132122" fill-rule="nonzero" d="M9.534 11C12.561 11 15 13.678 15 16.965a.916.916 0 0 1-.501.828c-.11.054-.282.126-.488.205-.388.148-.822.288-1.293.413C11.269 18.796 9.684 19 8 19c-1.684 0-4.27-.204-5.718-.59a13.065 13.065 0 0 1-1.293-.412 6.452 6.452 0 0 1-.488-.205.916.916 0 0 1-.501-.828C0 13.678 2.439 11 5.466 11h4.068zm-.031 1H5.497C3.021 12 1 14.184 1 16.895c0 .016.006.026.005.026.082.04.228.1.408.168.352.132.75.257 1.183.37C3.943 17.814 6.423 18 8 18s3.057-.187 4.404-.54c.434-.114.83-.239 1.183-.371.18-.068.326-.129.408-.168 0 0 .005-.01.005-.026C14 14.185 11.979 12 9.503 12zM3 4.7C3 2.104 5.015 0 7.5 0S12 2.104 12 4.7C12 7.392 9.915 10 7.5 10S3 7.392 3 4.7zm1 0C4 6.928 5.725 9 7.5 9S11 6.928 11 4.7C11 2.647 9.423 1 7.5 1S4 2.647 4 4.7z"/>
</svg>
